<svg width="48" height="15" viewBox="0 0 48 15" fill="none" xmlns="http://www.w3.org/2000/svg">
<path d="M5.903 8.835L6.024 8.659C6.19267 8.439 6.31 8.21167 6.376 7.977C6.442 7.735 6.475 7.40867 6.475 6.998V3.17C6.475 2.85467 6.453 2.64933 6.409 2.554C6.365 2.45133 6.26967 2.4 6.123 2.4H5.672C5.43 2.4 5.243 2.42567 5.111 2.477C4.98633 2.52833 4.88367 2.61633 4.803 2.741C4.72967 2.86567 4.66 3.049 4.594 3.291L4.539 3.533L4.198 3.412V1.641L4.363 1.509L4.539 1.641C4.715 1.78033 5.089 1.85 5.661 1.85H8.268C8.84733 1.85 9.22133 1.78033 9.39 1.641L9.566 1.509L9.731 1.641V3.412L9.39 3.533L9.335 3.291C9.23967 2.93167 9.12233 2.69333 8.983 2.576C8.84367 2.45867 8.60167 2.4 8.257 2.4H7.795C7.65567 2.4 7.56033 2.45133 7.509 2.554C7.465 2.65667 7.443 2.862 7.443 3.17V7.68C7.443 7.988 7.48333 8.20067 7.564 8.318C7.652 8.428 7.828 8.52333 8.092 8.604L8.334 8.659L8.213 9H6.024L5.903 8.835Z" fill="black"/>
<path d="M14.9787 9.165C14.7074 9.165 14.513 9.08067 14.3957 8.912C14.2784 8.74333 14.2197 8.472 14.2197 8.098V5.733C14.2197 5.38833 14.15 5.128 14.0107 4.952C13.8787 4.776 13.6624 4.688 13.3617 4.688C13.0757 4.688 12.8227 4.80167 12.6027 5.029C12.3827 5.25633 12.2104 5.57533 12.0857 5.986C11.9684 6.39667 11.9097 6.86967 11.9097 7.405C11.9097 7.713 11.9317 7.96233 11.9757 8.153C12.027 8.34367 12.115 8.52333 12.2397 8.692L12.3607 8.846L12.2397 9H10.4907L10.3697 8.692L10.5897 8.637C10.7584 8.60767 10.8684 8.54167 10.9197 8.439C10.9784 8.329 11.0077 8.14567 11.0077 7.889V2.279C11.0077 2.19833 10.993 2.14333 10.9637 2.114C10.9344 2.07733 10.883 2.059 10.8097 2.059H10.3587L10.2817 1.806C10.4724 1.63 10.6887 1.487 10.9307 1.377C11.18 1.25967 11.3964 1.201 11.5797 1.201C11.675 1.201 11.752 1.23033 11.8107 1.289C11.8767 1.34767 11.9097 1.42467 11.9097 1.52V5.414C12.0784 4.98133 12.3387 4.62567 12.6907 4.347C13.0427 4.06833 13.4094 3.929 13.7907 3.929C14.2747 3.929 14.6157 4.072 14.8137 4.358C15.019 4.63667 15.1217 5.095 15.1217 5.733V8.142C15.1217 8.36933 15.217 8.483 15.4077 8.483C15.5617 8.483 15.7267 8.417 15.9027 8.285L16.1117 8.527C15.9284 8.725 15.734 8.88267 15.5287 9C15.3307 9.11 15.1474 9.165 14.9787 9.165Z" fill="black"/>
<path d="M19.0281 9.143C18.5661 9.143 18.1627 9.03667 17.8181 8.824C17.4734 8.61133 17.2057 8.31433 17.0151 7.933C16.8244 7.54433 16.7291 7.097 16.7291 6.591C16.7291 6.063 16.8354 5.59733 17.0481 5.194C17.2607 4.79067 17.5614 4.479 17.9501 4.259C18.3461 4.039 18.8007 3.929 19.3141 3.929C19.8567 3.929 20.2747 4.072 20.5681 4.358C20.8687 4.644 21.0191 4.98867 21.0191 5.392C21.0191 5.67067 20.9421 5.93833 20.7881 6.195C20.6414 6.45167 20.4214 6.66067 20.1281 6.822C19.8421 6.98333 19.5047 7.064 19.1161 7.064C18.8961 7.064 18.6577 7.02733 18.4011 6.954C18.1444 6.87333 18.0161 6.756 18.0161 6.602C18.0161 6.54333 18.0307 6.492 18.0601 6.448C18.0894 6.404 18.1224 6.382 18.1591 6.382C18.1811 6.382 18.2471 6.404 18.3571 6.448C18.4744 6.48467 18.6247 6.503 18.8081 6.503C19.2114 6.503 19.5231 6.393 19.7431 6.173C19.9631 5.953 20.0731 5.689 20.0731 5.381C20.0731 5.117 19.9851 4.88967 19.8091 4.699C19.6404 4.50833 19.4131 4.413 19.1271 4.413C18.6944 4.413 18.3571 4.60367 18.1151 4.985C17.8804 5.359 17.7631 5.89433 17.7631 6.591C17.7631 7.185 17.8877 7.65067 18.1371 7.988C18.3937 8.318 18.7604 8.483 19.2371 8.483C19.8237 8.483 20.3077 8.29233 20.6891 7.911C20.7111 7.889 20.7404 7.878 20.7771 7.878C20.8357 7.878 20.8944 7.90733 20.9531 7.966C21.0191 8.02467 21.0521 8.087 21.0521 8.153C21.0521 8.175 21.0447 8.197 21.0301 8.219C21.0154 8.23367 21.0081 8.24467 21.0081 8.252C20.7587 8.54533 20.4617 8.769 20.1171 8.923C19.7797 9.06967 19.4167 9.143 19.0281 9.143Z" fill="black"/>
<path d="M3.244 14.143C2.92133 14.143 2.62067 14.0513 2.342 13.868C2.07067 13.6773 1.85067 13.4023 1.682 13.043C1.52067 12.6763 1.44 12.2327 1.44 11.712C1.44 10.854 1.671 10.1757 2.133 9.677C2.60233 9.17833 3.233 8.929 4.025 8.929C4.289 8.929 4.64833 8.96933 5.103 9.05C5.44033 9.10867 5.74467 9.149 6.016 9.171L6.148 9.292L6.005 9.479C5.95367 9.567 5.917 9.63667 5.895 9.688C5.88033 9.732 5.873 9.79433 5.873 9.875V13.12C5.873 13.3253 5.97933 13.428 6.192 13.428C6.35333 13.428 6.51833 13.3693 6.687 13.252L6.874 13.505C6.698 13.703 6.511 13.8607 6.313 13.978C6.115 14.088 5.93533 14.143 5.774 14.143C5.49533 14.143 5.29367 14.0623 5.169 13.901C5.04433 13.7323 4.982 13.461 4.982 13.087C4.718 13.4757 4.443 13.7507 4.157 13.912C3.87833 14.066 3.574 14.143 3.244 14.143ZM3.629 13.362C4.18633 13.362 4.63733 13.0613 4.982 12.46V9.765C4.696 9.57433 4.37333 9.479 4.014 9.479C3.53733 9.479 3.16333 9.65867 2.892 10.018C2.628 10.37 2.496 10.8723 2.496 11.525C2.496 12.1557 2.60233 12.6213 2.815 12.922C3.035 13.2153 3.30633 13.362 3.629 13.362Z" fill="#03045E"/>
<path d="M8.75388 14.143C8.47522 14.143 8.27355 14.0623 8.14888 13.901C8.03155 13.7323 7.97288 13.461 7.97288 13.087V7.279C7.97288 7.19833 7.95822 7.14333 7.92888 7.114C7.89955 7.07733 7.84822 7.059 7.77488 7.059H7.34588L7.24688 6.806C7.43755 6.63 7.65755 6.487 7.90688 6.377C8.15622 6.25967 8.37988 6.201 8.57788 6.201C8.67322 6.201 8.75022 6.23033 8.80888 6.289C8.86755 6.34767 8.89688 6.42467 8.89688 6.52L8.87488 13.12C8.87488 13.23 8.90055 13.3143 8.95188 13.373C9.00322 13.4317 9.07655 13.461 9.17188 13.461C9.35522 13.461 9.52022 13.3913 9.66688 13.252L9.86488 13.505C9.69622 13.6957 9.50922 13.8497 9.30388 13.967C9.09855 14.0843 8.91522 14.143 8.75388 14.143Z" fill="#03045E"/>
<path d="M12.543 14.143C12.0663 14.143 11.696 14 11.432 13.714C11.168 13.4207 11.036 13.0137 11.036 12.493V10.007C11.036 9.84567 10.97 9.765 10.838 9.765H10.387L10.31 9.523C10.4786 9.347 10.684 9.204 10.926 9.094C11.1753 8.984 11.4026 8.929 11.608 8.929C11.7033 8.929 11.7803 8.95833 11.839 9.017C11.905 9.06833 11.938 9.138 11.938 9.226V12.251C11.938 12.647 12.0186 12.9513 12.18 13.164C12.3413 13.3693 12.5796 13.472 12.895 13.472C13.3423 13.472 13.6906 13.2813 13.94 12.9C14.1893 12.5113 14.314 11.976 14.314 11.294C14.314 10.81 14.2846 10.4323 14.226 10.161C14.1746 9.88233 14.072 9.611 13.918 9.347L13.797 9.193L13.918 9.05L15.15 8.929V13.12C15.15 13.3253 15.238 13.428 15.414 13.428C15.5826 13.428 15.7476 13.3693 15.909 13.252L16.107 13.505C15.9456 13.6957 15.7623 13.8497 15.557 13.967C15.359 14.0843 15.172 14.143 14.996 14.143C14.732 14.143 14.5413 14.066 14.424 13.912C14.3066 13.7507 14.248 13.505 14.248 13.175C14.0866 13.4757 13.8556 13.714 13.555 13.89C13.2543 14.0587 12.917 14.143 12.543 14.143Z" fill="#03045E"/>
<path d="M24.3599 14.143C24.0885 14.143 23.8905 14.0623 23.7659 13.901C23.6485 13.7323 23.5899 13.461 23.5899 13.087V10.711C23.5899 10.029 23.3442 9.688 22.8529 9.688C22.5815 9.688 22.3359 9.798 22.1159 10.018C21.9032 10.2307 21.7345 10.535 21.6099 10.931C21.4852 11.3197 21.4192 11.7707 21.4119 12.284V12.405C21.4119 12.7423 21.4375 13.0137 21.4889 13.219C21.5475 13.4243 21.6649 13.6333 21.8409 13.846L21.7199 14H20.5209V10.711C20.5209 10.3737 20.4549 10.1207 20.3229 9.952C20.1982 9.776 20.0112 9.688 19.7619 9.688C19.4759 9.688 19.2229 9.80167 19.0029 10.029C18.7902 10.2563 18.6252 10.5753 18.5079 10.986C18.3905 11.3967 18.3319 11.8697 18.3319 12.405C18.3319 12.713 18.3539 12.9623 18.3979 13.153C18.4492 13.3437 18.5335 13.5233 18.6509 13.692L18.7719 13.846L18.6509 14H16.9019L16.8029 13.692L16.9899 13.637C17.1659 13.6077 17.2795 13.5417 17.3309 13.439C17.3895 13.329 17.4189 13.1457 17.4189 12.889V10.095C17.4189 10.0143 17.4042 9.95933 17.3749 9.93C17.3455 9.89333 17.2942 9.875 17.2209 9.875H16.7919L16.6929 9.611C16.8835 9.435 17.1035 9.292 17.3529 9.182C17.6022 9.072 17.8222 9.017 18.0129 9.017C18.1082 9.017 18.1852 9.04633 18.2439 9.105C18.3025 9.16367 18.3319 9.237 18.3319 9.325V10.414C18.5005 9.974 18.7499 9.61833 19.0799 9.347C19.4172 9.06833 19.7692 8.929 20.1359 8.929C20.5465 8.929 20.8545 9.05 21.0599 9.292C21.2652 9.52667 21.3825 9.90067 21.4119 10.414C21.5805 9.98133 21.8335 9.62567 22.1709 9.347C22.5082 9.06833 22.8565 8.929 23.2159 8.929C23.6632 8.929 23.9859 9.072 24.1839 9.358C24.3892 9.644 24.4919 10.095 24.4919 10.711V13.12C24.4919 13.3473 24.5872 13.461 24.7779 13.461C24.9465 13.461 25.1115 13.3913 25.2729 13.252L25.4709 13.505C25.2949 13.703 25.1079 13.8607 24.9099 13.978C24.7119 14.088 24.5285 14.143 24.3599 14.143Z" fill="#03045E"/>
<path d="M30.7571 14.143C30.4857 14.143 30.2914 14.0623 30.1741 13.901C30.0567 13.7323 29.9981 13.461 29.9981 13.087V10.711C29.9981 10.3737 29.9247 10.1207 29.7781 9.952C29.6314 9.776 29.4151 9.688 29.1291 9.688C28.8431 9.688 28.5901 9.80167 28.3701 10.029C28.1574 10.2563 27.9924 10.5753 27.8751 10.986C27.7577 11.3967 27.6991 11.8697 27.6991 12.405C27.6991 12.713 27.7211 12.9623 27.7651 13.153C27.8164 13.3437 27.9007 13.5233 28.0181 13.692L28.1391 13.846L28.0181 14H26.2691L26.1701 13.692L26.3571 13.637C26.5331 13.6077 26.6467 13.5417 26.6981 13.439C26.7567 13.329 26.7861 13.1457 26.7861 12.889V10.095C26.7861 10.0143 26.7714 9.95933 26.7421 9.93C26.7127 9.89333 26.6614 9.875 26.5881 9.875H26.1591L26.0601 9.611C26.2507 9.435 26.4707 9.292 26.7201 9.182C26.9694 9.072 27.1894 9.017 27.3801 9.017C27.4754 9.017 27.5524 9.04633 27.6111 9.105C27.6697 9.16367 27.6991 9.237 27.6991 9.325V10.414C27.8677 9.98133 28.1244 9.62567 28.4691 9.347C28.8137 9.06833 29.1767 8.929 29.5581 8.929C30.0201 8.929 30.3574 9.072 30.5701 9.358C30.7901 9.644 30.9001 10.095 30.9001 10.711V13.12C30.9001 13.3473 30.9991 13.461 31.1971 13.461C31.3584 13.461 31.5234 13.3913 31.6921 13.252L31.8791 13.505C31.7104 13.6957 31.5234 13.8497 31.3181 13.967C31.1127 14.0843 30.9257 14.143 30.7571 14.143Z" fill="#03045E"/>
<path d="M34.6074 14.143C34.1307 14.143 33.7604 14 33.4964 13.714C33.2324 13.4207 33.1004 13.0137 33.1004 12.493V10.007C33.1004 9.84567 33.0344 9.765 32.9024 9.765H32.4514L32.3744 9.523C32.5431 9.347 32.7484 9.204 32.9904 9.094C33.2397 8.984 33.4671 8.929 33.6724 8.929C33.7677 8.929 33.8447 8.95833 33.9034 9.017C33.9694 9.06833 34.0024 9.138 34.0024 9.226V12.251C34.0024 12.647 34.0831 12.9513 34.2444 13.164C34.4057 13.3693 34.6441 13.472 34.9594 13.472C35.4067 13.472 35.7551 13.2813 36.0044 12.9C36.2537 12.5113 36.3784 11.976 36.3784 11.294C36.3784 10.81 36.3491 10.4323 36.2904 10.161C36.2391 9.88233 36.1364 9.611 35.9824 9.347L35.8614 9.193L35.9824 9.05L37.2144 8.929V13.12C37.2144 13.3253 37.3024 13.428 37.4784 13.428C37.6471 13.428 37.8121 13.3693 37.9734 13.252L38.1714 13.505C38.0101 13.6957 37.8267 13.8497 37.6214 13.967C37.4234 14.0843 37.2364 14.143 37.0604 14.143C36.7964 14.143 36.6057 14.066 36.4884 13.912C36.3711 13.7507 36.3124 13.505 36.3124 13.175C36.1511 13.4757 35.9201 13.714 35.6194 13.89C35.3187 14.0587 34.9814 14.143 34.6074 14.143Z" fill="#03045E"/>
<path d="M40.6383 14.143C40.1397 14.143 39.7253 14.0293 39.3953 13.802C39.0653 13.5673 38.9003 13.263 38.9003 12.889C38.9003 12.669 38.9773 12.4857 39.1313 12.339C39.2927 12.185 39.4943 12.108 39.7363 12.108C39.7877 12.108 39.8353 12.119 39.8793 12.141C39.9233 12.163 39.9453 12.1923 39.9453 12.229C39.9453 12.251 39.9233 12.317 39.8793 12.427C39.8353 12.5297 39.8133 12.6543 39.8133 12.801C39.8133 13.0723 39.9087 13.2813 40.0993 13.428C40.2973 13.5747 40.5173 13.648 40.7593 13.648C41.038 13.648 41.2653 13.5747 41.4413 13.428C41.6173 13.2813 41.7053 13.0907 41.7053 12.856C41.7053 12.6433 41.61 12.4673 41.4193 12.328C41.236 12.1887 40.9683 12.0457 40.6163 11.899C40.2937 11.7597 40.0223 11.6277 39.8023 11.503C39.5897 11.3783 39.4063 11.2133 39.2523 11.008C39.0983 10.8027 39.0213 10.5533 39.0213 10.26C39.0213 9.87133 39.1937 9.55233 39.5383 9.303C39.883 9.05367 40.3157 8.929 40.8363 8.929C41.313 8.929 41.7053 9.02067 42.0133 9.204C42.3213 9.38 42.4753 9.62567 42.4753 9.941C42.4753 10.1977 42.3983 10.4067 42.2443 10.568C42.0903 10.7293 41.8887 10.81 41.6393 10.81C41.4927 10.81 41.4193 10.7623 41.4193 10.667C41.4193 10.6377 41.445 10.5717 41.4963 10.469C41.555 10.3663 41.5843 10.249 41.5843 10.117C41.5843 9.88233 41.5 9.70633 41.3313 9.589C41.1627 9.46433 40.972 9.402 40.7593 9.402C40.488 9.402 40.2717 9.468 40.1103 9.6C39.9563 9.732 39.8793 9.90433 39.8793 10.117C39.8793 10.3663 39.982 10.5717 40.1873 10.733C40.3927 10.887 40.6823 11.0337 41.0563 11.173C41.379 11.3123 41.6467 11.4407 41.8593 11.558C42.072 11.6753 42.2517 11.8257 42.3983 12.009C42.545 12.185 42.6183 12.394 42.6183 12.636C42.6183 13.0907 42.435 13.4573 42.0683 13.736C41.709 14.0073 41.2323 14.143 40.6383 14.143Z" fill="#03045E"/>
<path d="M43.5827 10.1189C43.5827 10.1189 41.9229 10.9145 40.231 10.3788C38.5391 9.84306 37.6407 8.23743 37.6407 8.23743C37.6407 8.23743 37.7644 7.01976 39.0037 5.24223C39.6573 4.30506 44.3058 5.6605 44.3794 6.68445C44.5054 8.42281 43.5827 10.1189 43.5827 10.1189Z" fill="#424242"/>
<path d="M37.6407 8.23743L37.9433 8.69103C37.9433 8.69103 38.1437 8.04639 38.5328 7.50903C38.6784 7.30822 38.9741 7.29842 39.134 7.48787L40.3752 8.94955C40.4433 9.02959 40.5322 9.08917 40.6322 9.12163C40.7321 9.1541 40.8391 9.15818 40.9412 9.13342C41.8234 8.91897 44.126 8.35579 44.2369 8.3117C44.2369 8.3117 44.2827 8.16689 44.3048 7.97076L38.3003 6.0779L37.6407 8.23743Z" fill="#212121"/>
<path d="M46.6499 7.42014L40.9331 8.7619C40.8082 8.79131 40.677 8.74975 40.591 8.65357L36.6899 4.26644C36.5813 4.14448 36.6427 3.95056 36.8017 3.91333L42.5186 2.57158C42.6435 2.54216 42.7747 2.58372 42.8607 2.6799L46.7635 7.06757C46.8712 7.18926 46.8098 7.38318 46.6499 7.42014Z" fill="#424242"/>
<path d="M40.8327 8.49907C40.8319 8.4988 40.8299 8.49911 40.8291 8.49885C40.8155 8.49456 40.8031 8.48688 40.7936 8.4755L36.6846 3.98617C36.6846 3.98617 36.6453 4.02497 36.6433 4.11658C36.6421 4.20845 36.6728 4.24704 36.6899 4.26644L40.5924 8.65496C40.635 8.70291 40.6892 8.73777 40.7484 8.75654L40.7518 8.75761L40.8327 8.49907Z" fill="#9E9E9E"/>
<path d="M40.8291 8.49885C40.8299 8.49911 40.8319 8.4988 40.8327 8.49907C40.8463 8.50336 40.8607 8.50511 40.8749 8.50124L46.819 7.19511C46.819 7.19511 46.8288 7.24946 46.7777 7.32551C46.7258 7.4013 46.6783 7.41606 46.6531 7.42206L40.9362 8.76382C40.8738 8.77852 40.8094 8.77584 40.7501 8.75708L40.7467 8.756L40.8285 8.49773L40.8291 8.49885Z" fill="#616161"/>
<path d="M38.7689 6.60456L38.8713 6.3752C38.8713 6.3752 41.3043 5.90359 41.5467 5.84993C41.7892 5.79626 42.0461 5.73227 42.1753 5.65672C42.4036 5.52405 42.3187 5.36858 42.3187 5.36858C42.3187 5.36858 42.1163 5.543 41.8091 5.40381C41.6332 5.32387 41.4421 5.10034 41.4243 5.0183C41.4065 4.93626 38.5477 5.96152 38.5477 5.96152L38.4423 6.23841L38.7689 6.60456Z" fill="#424242"/>
<path d="M42.3187 5.36858C41.9987 5.60826 41.6654 5.35457 41.6654 5.35457C41.6654 5.35457 40.3086 5.54642 40.2917 5.44695C40.2747 5.34748 41.4574 5.14618 41.4574 5.14618C41.4574 5.14618 41.4667 4.9199 41.5007 4.83287C41.5007 4.83287 39.2909 5.42077 38.4761 5.59601C38.0491 5.68813 37.9104 5.8585 37.8244 6.13313C37.7863 6.25337 37.6644 6.64428 37.5923 6.87769C37.5787 6.92087 37.5472 6.95562 37.5056 6.97226C37.4426 6.99741 37.386 7.03621 37.3398 7.08587C37.2936 7.13553 37.259 7.19482 37.2385 7.25946C37.1975 7.38902 37.2175 7.52299 37.2818 7.63186C37.3164 7.69033 37.2767 7.78026 37.2619 7.84172C37.2339 7.95957 37.2088 8.00939 37.1276 8.10107C37.0481 8.19048 36.9711 8.2835 36.9066 8.3842C36.857 8.46164 36.8141 8.54403 36.7715 8.62558C36.4876 9.17203 36.2461 9.77572 35.811 10.223C35.8028 10.2314 35.7964 10.2413 35.7921 10.2521C35.7878 10.263 35.7857 10.2746 35.7859 10.2863C35.7861 10.2979 35.7886 10.3095 35.7933 10.3202C35.798 10.3309 35.8047 10.3405 35.8132 10.3486C35.8301 10.3651 35.8528 10.3743 35.8765 10.3741C35.9001 10.3739 35.9227 10.3643 35.9393 10.3475C36.1659 10.1146 36.3338 9.83423 36.4883 9.55238C36.3988 9.82313 36.3103 10.097 36.2071 10.3904C36.1872 10.4474 36.1462 10.5621 36.1907 10.6041C36.3577 10.7623 36.451 10.4676 36.451 10.4676C36.451 10.4676 36.3696 10.7335 36.638 10.8185C36.9065 10.9035 37.0099 10.6446 37.0099 10.6446C37.0099 10.6446 36.9524 10.8938 37.0942 10.9256C37.1517 10.9382 37.2361 10.9277 37.3018 10.6289C37.3672 10.331 37.6308 9.27219 37.7068 8.93479C37.8119 8.46772 37.7484 8.15041 37.7688 7.97986C37.7771 7.91541 37.7964 7.85163 37.8573 7.82711C37.9191 7.80241 37.9749 7.76454 38.0206 7.71612C38.0664 7.66769 38.101 7.60989 38.1222 7.54672C38.1434 7.48355 38.1505 7.41653 38.1431 7.35032C38.1358 7.28411 38.1141 7.2203 38.0796 7.16332C38.0673 7.14311 38.0599 7.12031 38.0579 7.09673C38.056 7.07316 38.0597 7.04946 38.0685 7.02753C38.154 6.8133 38.2726 6.50054 38.3104 6.43142C38.4779 6.12017 38.6601 6.11264 38.8588 6.0675C39.0579 6.02151 41.8356 5.68797 42.0068 5.63876C42.3239 5.54632 42.3187 5.36858 42.3187 5.36858Z" fill="#E2A610"/>
<path d="M42.3187 5.36858C42.016 5.59788 41.6231 5.32908 41.6231 5.32908C41.6231 5.32908 40.3572 5.46956 40.459 5.40397C40.56 5.33812 41.4574 5.14618 41.4574 5.14618C41.4574 5.14618 41.4667 4.9199 41.5007 4.83287C41.5007 4.83287 39.2869 5.32167 38.3966 5.61181C38.1668 5.6872 37.8651 5.8339 37.9845 6.11301C38.0398 6.2414 38.2016 6.31592 38.3343 6.27038C38.4146 6.2436 38.4874 6.19025 38.5624 6.15344C38.6555 6.10653 38.7558 6.08984 38.8563 6.0667C39.0553 6.02071 41.833 5.68717 42.0042 5.63795C42.3239 5.54632 42.3187 5.36858 42.3187 5.36858Z" fill="#FFCA28"/>
<path d="M37.3935 8.20015C37.2817 8.16476 37.2093 8.13158 37.1458 8.09377C37.1344 8.0871 37.1259 8.07658 37.1216 8.06412C37.1173 8.05166 37.1177 8.03809 37.1226 8.02586L37.247 7.70936C37.26 7.67713 37.2986 7.66419 37.3278 7.6837C37.3971 7.72984 37.5425 7.80012 37.8081 7.82645C37.8407 7.82933 37.8645 7.86015 37.858 7.89256L37.79 8.22506C37.7842 8.25212 37.7595 8.27131 37.7322 8.2692C37.5932 8.25781 37.4976 8.23313 37.3935 8.20015Z" fill="#9E740B"/>
<path d="M43.5827 10.1189C43.5827 10.1189 43.9803 9.38389 44.1837 8.53245C44.2181 8.38867 44.1701 8.24023 43.9474 8.71103C43.82 8.98095 43.4697 9.79893 43.1612 10.2817C43.4265 10.1943 43.5827 10.1189 43.5827 10.1189Z" fill="#616161"/>
<path d="M42.2251 4.59916C42.2807 4.63821 42.3224 4.7036 42.3184 4.7722C42.3128 4.86358 42.2326 4.93137 42.1541 4.97919C42.0005 5.07309 41.8096 5.13749 41.6395 5.07713C41.5834 5.05748 41.5283 5.01954 41.5078 4.96367C41.4931 4.92456 41.4975 4.88123 41.5076 4.84063C41.5843 4.54535 41.9826 4.42922 42.2251 4.59916Z" fill="#616161"/>
</svg>
